<?xml version="1.0" encoding="UTF-8" standalone="no"?><!DOCTYPE svg PUBLIC "-//W3C//DTD SVG 1.1//EN" "http://www.w3.org/Graphics/SVG/1.1/DTD/svg11.dtd"><svg width="100%" height="100%" viewBox="0 0 108 53" version="1.1" xmlns="http://www.w3.org/2000/svg" xmlns:xlink="http://www.w3.org/1999/xlink" xml:space="preserve" style="fill-rule:evenodd;clip-rule:evenodd;stroke-linejoin:round;stroke-miterlimit:1.41421;"><rect id="logohorizontal" x="0.129" y="0.651" width="107.266" height="52.24" style="fill:none;"/><path d="M19.636,24.278c0.975,0.115 2.122,0.229 3.288,0.325l0.134,0.019l6.421,6.422l7.607,0l0,-6.766l-17.45,0Zm7.053,7.989c-1.166,0 -2.504,-0.076 -3.784,-0.172c0.267,3.001 0.649,5.695 0.649,5.695l6.766,0c0,0 -0.401,-2.714 -0.65,-5.733c-1.165,0.191 -2.159,0.21 -2.981,0.21m-3.803,-7.32c-3.154,-0.249 -6.097,-0.669 -6.097,-0.669l0,6.766c0,0 5.848,0.879 9.9,0.879c0.86,0 1.854,-0.038 2.943,-0.21l-6.746,-6.766Zm7.415,-7.435l-6.747,0l0,6.403l6.766,0l0,-6.403l-0.019,0Zm-0.478,13.876l0.153,0.153l0.019,0.133c0,0.115 0.019,0.23 0.019,0.325c0.096,1.052 0.192,2.065 0.306,2.944l0,-3.555l-0.497,0Z" style="fill:#fff;fill-rule:nonzero;"/><path d="M47.942,21.43l0,10.837l-2.198,0l-0.172,-1.166c-0.535,0.784 -1.472,1.319 -2.676,1.319c-2.179,0 -3.383,-1.682 -3.383,-3.861c0,-2.504 1.663,-3.822 3.46,-3.822c1.49,0 2.159,0.822 2.427,1.166l0,-4.473l2.542,0Zm-5.753,7.167c0,1.185 0.306,2.217 1.567,2.217c1.262,0 1.682,-1.051 1.682,-2.331c0,-1.243 -0.42,-2.179 -1.605,-2.179c-1.128,0.019 -1.644,0.898 -1.644,2.293Z" style="fill:#94d6da;fill-rule:nonzero;"/><path d="M59.18,26.113c0.248,0.21 0.611,0.535 0.611,1.185c0,1.529 -1.949,2.102 -3.631,2.102c-0.497,0 -0.745,-0.057 -0.994,-0.095c-0.306,0.305 -0.401,0.477 -0.401,0.63c0,0.325 0.459,0.383 1.204,0.421c1.433,0.095 4.759,0.038 4.759,2.236c0,1.491 -1.873,2.542 -4.472,2.542c-2.084,0 -4.109,-0.65 -4.109,-1.682c0,-0.86 1.127,-1.261 2.217,-1.606c-0.497,-0.114 -1.377,-0.363 -1.377,-1.012c0,-0.555 0.517,-0.994 1.281,-1.682c-0.86,-0.23 -2.007,-0.746 -2.007,-2.064c0,-1.262 1.109,-2.351 3.555,-2.351c0.784,0 1.262,0.095 1.778,0.191l2.905,-0.038l0,1.223l-1.319,0Zm-4.855,6.918c0,0.708 1.204,0.861 2.045,0.861c0.88,0 2.122,-0.172 2.122,-0.918c0,-0.726 -1.357,-0.879 -2.16,-0.879c-1.548,0.019 -2.007,0.42 -2.007,0.936Zm0.23,-5.943c0,0.783 0.65,1.165 1.452,1.165c0.516,0 1.51,-0.191 1.51,-1.204c0,-0.86 -0.65,-1.185 -1.491,-1.185c-0.688,0.019 -1.471,0.287 -1.471,1.224Z" style="fill:#94d6da;fill-rule:nonzero;"/><path d="M51.688,24.89l0,7.377l-2.561,0l0,-7.377l2.561,0Zm-1.338,-3.517c-0.726,0 -1.338,0.592 -1.338,1.338c0,0.745 0.593,1.338 1.338,1.338c0.745,0 1.338,-0.593 1.338,-1.338c0,-0.746 -0.612,-1.338 -1.338,-1.338Z" style="fill:#94d6da;fill-rule:nonzero;"/><path d="M63.92,24.89l0,7.377l-2.561,0l0,-7.377l2.561,0Zm-1.319,-3.517c-0.726,0 -1.338,0.592 -1.338,1.338c0,0.745 0.593,1.338 1.338,1.338c0.745,0 1.338,-0.593 1.338,-1.338c0,-0.746 -0.612,-1.338 -1.338,-1.338Z" style="fill:#94d6da;fill-rule:nonzero;"/><path d="M87.371,28.215l-2.007,-0.592c-1.3,-0.421 -2.179,-1.663 -2.179,-3.02c0,-1.778 1.414,-3.192 3.192,-3.192l3.956,0l0,1.414l-2.771,0c-0.535,0 -1.013,0.421 -1.013,1.013c0,0.364 0.229,0.765 0.65,0.88l1.949,0.649c1.357,0.421 2.064,1.778 2.064,3.307c0,1.949 -1.586,3.536 -3.536,3.536l-4.185,0l0,-1.587l3.612,0c0.535,0 1.128,-0.535 1.128,-1.242c-0.039,-0.516 -0.325,-0.994 -0.86,-1.166m-18.444,0l-2.007,-0.592c-1.242,-0.421 -2.121,-1.663 -2.121,-3.02c0,-1.778 1.414,-3.192 3.192,-3.192l3.956,0l0,1.414l-2.771,0c-0.536,0 -1.013,0.421 -1.013,1.013c0,0.364 0.229,0.765 0.649,0.88l1.95,0.649c1.3,0.421 2.007,1.778 2.007,3.307c0,1.949 -1.548,3.536 -3.479,3.536l-4.185,0l0,-1.587l3.612,0c0.535,0 1.128,-0.535 1.128,-1.242c-0.02,-0.516 -0.383,-0.994 -0.918,-1.166m9.174,4.377c-2.427,0 -4.319,-1.72 -4.319,-3.842l0,-7.262l3.249,0l0,7.549c0,0.956 0.822,1.72 1.892,1.72c1.013,0 1.892,-0.764 1.892,-1.72l0,-7.549l1.529,0l0,7.262c0,2.122 -1.892,3.842 -4.243,3.842" style="fill:#fff;fill-rule:nonzero;"/></svg>